/* XPM */
static char *result[] = {
/* columns rows colors chars-per-pixel */
"35 57 8 1 ",
"  c black",
". c #A87858",
"X c #E84050",
"o c #789850",
"O c #D89070",
"+ c #88C858",
"@ c #F8F8B0",
"# c None",
/* pixels */
"###################################",
"###################################",
"###################################",
"###################################",
"###################################",
"###################################",
"###################################",
"###################################",
"###################################",
"###################################",
"###################################",
"###################################",
"###################################",
"###################################",
"###############  ##  ##############",
"############### +  + ##############",
"##############  o++o  #############",
"############# o+ @@ +o ############",
"############ .  oooo  . ###########",
"########### ... o  o ... ##########",
"########## ..OX  XX  XO.. #########",
"########## .XXOXOXXOXOXX. #########",
"########## .XXXXO@@OXXXX. #########",
"########## XXXXXXXXXXXXXX #########",
"########## .XXXXXXXXXXXX. #########",
"##########o XXXXXXXXXXXX o#########",
"##########o .XXXXXXXXXX. o#########",
"###########o ..XXXXXX.. o##########",
"############ooo......ooo###########",
"################oooo###############",
"###################################",
"###################################",
"###################################",
"###################################",
"###################################",
"###################################",
"###################################",
"###################################",
"###################################",
"###################################",
"###################################",
"###################################",
"###################################",
"###################################",
"###################################",
"###################################",
"###################################",
"###################################",
"###################################",
"###################################",
"###################################",
"###################################",
"###################################",
"###################################",
"###################################",
"###################################",
"###################################"
};
