/* XPM */
static char *result[] = {
/* columns rows colors chars-per-pixel */
"23 37 184 2 ",
"   c #2F1F1F",
".  c #301F1F",
"X  c #2F2020",
"o  c #302020",
"O  c #332323",
"+  c #34252D",
"@  c #382929",
"#  c #392929",
"$  c #392A2A",
"%  c #3B2C2C",
"&  c #3C2C2C",
"*  c #3C2D2D",
"=  c #3D2E2E",
"-  c #3E3030",
";  c #413232",
":  c #413333",
">  c #433535",
",  c #453737",
"<  c #463737",
"1  c #473939",
"2  c #473A3A",
"3  c #483A3A",
"4  c #4A3C3C",
"5  c #4C3F3F",
"6  c #3C2F47",
"7  c #3F3351",
"8  c #403454",
"9  c #413558",
"0  c #413658",
"q  c #43385F",
"w  c #483E6F",
"e  c #493F71",
"r  c #4D4040",
"t  c #4E4040",
"y  c #4F4141",
"u  c #4F4242",
"i  c #504343",
"p  c #534747",
"a  c #544747",
"s  c #544848",
"d  c #554949",
"f  c #564949",
"g  c #564A4A",
"h  c #584B4B",
"j  c #584C4C",
"k  c #594C4C",
"l  c #5A4F4F",
"z  c #584C54",
"x  c #5C5151",
"c  c #5D5151",
"v  c #5D5252",
"b  c #5F5454",
"n  c #5F545A",
"m  c #605454",
"M  c #625757",
"N  c #635858",
"B  c #655B5B",
"V  c #665A5A",
"C  c #665B5B",
"Z  c #695F5F",
"A  c #6B6060",
"S  c #6B6161",
"D  c #6A6262",
"F  c #6C6161",
"G  c #6D6363",
"H  c #726767",
"J  c #726969",
"K  c #736969",
"L  c #746B6B",
"P  c #766B6B",
"I  c #776F6F",
"U  c #7A7070",
"Y  c #7A7171",
"T  c #7B7474",
"R  c #7C7474",
"E  c #7D7575",
"W  c #7E7474",
"Q  c #7E7676",
"!  c #7F7777",
"~  c #827979",
"^  c #4E4581",
"/  c #534C93",
"(  c #544D95",
")  c #544D96",
"_  c #5C569E",
"`  c #5852A2",
"'  c #5A55AA",
"]  c #5C57AF",
"[  c #5C57B1",
"{  c #6E69A6",
"}  c #635FC5",
"|  c #6461C9",
" . c #7977CF",
".. c #6968DB",
"X. c #6C6BE3",
"o. c #6F6EEC",
"O. c #7070F0",
"+. c #878181",
"@. c #8A8181",
"#. c #8B8383",
"$. c #8B8484",
"%. c #8C8484",
"&. c #8D8484",
"*. c #8D8787",
"=. c #8F8787",
"-. c #8F8989",
";. c #908888",
":. c #938B8B",
">. c #938C8C",
",. c #948E8E",
"<. c #958F8F",
"1. c #979292",
"2. c #989393",
"3. c #9A9393",
"4. c #9B9696",
"5. c #9C9595",
"6. c #9D9696",
"7. c #9D9797",
"8. c #9E9A9A",
"9. c #9F9A9A",
"0. c #A19A9A",
"q. c #A29E9E",
"w. c #A59E9E",
"e. c #A59F9F",
"r. c #9E99AF",
"t. c #A6A1A1",
"y. c #A7A3A3",
"u. c #A8A2A2",
"i. c #A9A5A5",
"p. c #AAA5A5",
"a. c #ADA9A9",
"s. c #AFAAAA",
"d. c #B1ABAB",
"f. c #B2ADAD",
"g. c #B1AEAE",
"h. c #B3AEAE",
"j. c #B4AFAF",
"k. c #B7B2B2",
"l. c #BBB9B9",
"z. c #BCB8B8",
"x. c #BEBDBD",
"c. c #BFBEBE",
"v. c #C0BCBC",
"b. c #C1BEBE",
"n. c #C3C0C0",
"m. c #C4C2C2",
"M. c #C6C2C2",
"N. c #C7C4C4",
"B. c #C8C5C5",
"V. c #C9C5C5",
"C. c #C8C8C8",
"Z. c #CBC8C8",
"A. c #CCC9C9",
"S. c #CCCBCB",
"D. c #CDCCCC",
"F. c gray81",
"G. c #D0D0D0",
"H. c gray82",
"J. c #D3D1D1",
"K. c #D3D2D2",
"L. c #D5D2D2",
"P. c gray84",
"I. c #D8D6D6",
"U. c #D9D7D7",
"Y. c #DBD9D9",
"T. c #DCDBDB",
"R. c #DDDCDC",
"E. c #C6C5E3",
"W. c #D0D0F0",
"Q. c #E1E1E1",
"!. c #E2E1E1",
"~. c gray89",
"^. c #E4E3E3",
"/. c #E7E6E6",
"(. c #E7E7E7",
"). c gray91",
"_. c #E9E9E9",
"`. c gray92",
"'. c #EDECEC",
"]. c gray93",
"[. c #EEEEEE",
"{. c #EFEFEF",
"}. c gray94",
"|. c None",
/* pixels */
"|.|.|.|.|.|.|.|.|.|.|.|.|.|.|.|.|.|.|.|.|.|.|.",
"|.|.|.|.|.|.|.|.|.|.|.|.|.|.|.|.|.|.|.|.|.|.|.",
"|.|.|.|.|.|.|.|.|.|.|.|.|.|.|.|.|.|.|.|.|.|.|.",
"|.|.|.|.|.|.|.o o o o o o o o o |.|.|.|.|.|.|.",
"|.|.|.|.|.|.u R #.;.;.;.;.;.%.E s |.|.|.|.|.|.",
"|.|.|.|.|.y J F.(.}.}.}.}.}._.H.Y u |.|.|.|.|.",
"|.|.|.|.. >.T.`.[.}.}.}.}.}.{.`.R.7.  |.|.|.|.",
"|.|.|.@ T b.}.}.}.}.}.}.}.}.}.}.}.B.! ; |.|.|.",
"|.|.|.$ g.Q./.A.A.A.L.}.}.}.}.}.}.~.l.> |.|.|.",
"|.|.|.% N.].M.3 3 3 H }.}.}.}.}.}.[.J.1 |.|.|.",
"|.|.|.* A.}.v.o o o m }.}.}.}.}.}.}.I.3 |.|.|.",
"|.|.|.% p.Y.v.o o o m }.}.}.}.}.}.}.I.3 |.|.|.",
"|.|.|.|.& 0.v.o o o m }.}.}.}.}.}.}.I.3 |.|.|.",
"|.|.|.& =.Z.Y.5.5.5.d.}.e.h.}.}.}.(.m., |.|.|.",
"|.|.|.# w.v.v.v.v.v.v.v.W @.V.'._.S.1.: |.|.|.",
"|.|.|.o $ * * * * * * * s.3.c ^.P.,.$ |.|.|.|.",
"|.|.|.o o K @.o @.F t u.U.5.= K G p o |.|.|.|.",
"|.|.|.  o U :.o :.;.&.}.}.5.@ x - o X |.|.|.|.",
"|.|.|.|.o o o o o ;.}.}.}.5.5 x.b o |.|.|.|.|.",
"|.|.|.|.o B <.u.u.A.}.}.6.~ +.S : . . |.|.|.|.",
"|.|.|.|.  L 9.j.j.j.j.j.k v *.N b r o |.|.|.|.",
"|.|.|.|.|.o o o o o o o o o 5 x.C.-.o |.|.|.|.",
"|.|.|.|.|.|.|.o :.H 4 2.{ ] _ n b j |.|.|.|.|.",
"|.|.|.|.|.|.|.o @.F 2 -. .O.| +   |.|.|.|.|.|.",
"|.|.|.|.|.|.|.o o o o o ] O.| + |.|.|.|.|.|.|.",
"|.|.|.|.|.|.|.o Q t.r.] ..[ w ' 0 |.|.|.|.|.|.",
"|.|.|.|.|.|.X o a.~.W.O.O.( 6 X.) q |.|.|.|.|.",
"|.|.|.|.|.o o o k.^.E.X.X./ 7 X.O.` o |.|.|.|.",
"|.|.|.  |.o o o a m z 8 8 ^ } o.O.` o |.|.|.|.",
"|.|.g P |.X o o o o o o o 9 ` ` ` e . |.|.|.|.",
"|.o A !.c * # o o o o o o o o o o O $ $ O o |.",
"|.o M G.n.v.5.o o o o o o o o o o l q.q.l o |.",
"|.|.f $.D.).v.o o X o o o o   X o i *.c.Z o |.",
"|.|.|.$ 8.K.z.o X |.|.|.|.|.|.o . # d y.C . |.",
"|.|.|.|.a 4.i.o |.|.|.|.|.|.|.|.  V f.N 4 |.|.",
"|.|.|.|.|.D I o |.|.|.|.|.|.|.|.o h >.< |.|.|.",
"|.|.|.|.|.o o |.|.|.|.|.|.|.|.|.o o o |.|.|.|."
};
