/* XPM */
static char *result[] = {
/* columns rows colors chars-per-pixel */
"23 37 195 2 ",
"   c #2F1F1F",
".  c #301F1F",
"X  c #311F1F",
"o  c #321F1F",
"O  c #2F2020",
"+  c #2F2121",
"@  c #302020",
"#  c #312020",
"$  c #302121",
"%  c #312121",
"&  c #332323",
"*  c #34252D",
"=  c #382929",
"-  c #392929",
";  c #392A2A",
":  c #382B2B",
">  c #3A2B2B",
",  c #3B2C2C",
"<  c #3C2C2C",
"1  c #3D2C2C",
"2  c #3C2D2D",
"3  c #3D2D2D",
"4  c #3D2E2E",
"5  c #3E3030",
"6  c #413333",
"7  c #433232",
"8  c #433535",
"9  c #453737",
"0  c #473737",
"q  c #473939",
"w  c #473A3A",
"e  c #483A3A",
"r  c #4A3C3C",
"t  c #4C3C3C",
"y  c #4C3F3F",
"u  c #3C2F47",
"i  c #3F3351",
"p  c #403454",
"a  c #413558",
"s  c #413759",
"d  c #44385F",
"f  c #483E6F",
"g  c #493F71",
"h  c #4D4040",
"j  c #4E4040",
"k  c #4F4141",
"l  c #4F4242",
"z  c #504343",
"x  c #534747",
"c  c #544747",
"v  c #554747",
"b  c #554949",
"n  c #564949",
"m  c #574949",
"M  c #564C4C",
"N  c #584B4B",
"B  c #594C4C",
"V  c #594D4D",
"C  c #5A4F4F",
"Z  c #584C54",
"A  c #5C5151",
"S  c #5D5151",
"D  c #5D5252",
"F  c #5F5454",
"G  c #5F545A",
"H  c #605454",
"J  c #625757",
"K  c #635858",
"L  c #655B5B",
"P  c #665A5A",
"I  c #665B5B",
"U  c #695F5F",
"Y  c #6B6060",
"T  c #6B6161",
"R  c #6A6363",
"E  c #6C6161",
"W  c #6D6363",
"Q  c #726767",
"!  c #726969",
"~  c #736969",
"^  c #776B6B",
"/  c #756C6C",
"(  c #776F6F",
")  c #7A7070",
"_  c #7A7171",
"`  c #7B7575",
"'  c #7C7474",
"]  c #7D7575",
"[  c #7E7474",
"{  c #7E7676",
"}  c #807878",
"|  c #827979",
" . c #4E4581",
".. c #534C93",
"X. c #544D95",
"o. c #544D96",
"O. c #5C569E",
"+. c #5852A2",
"@. c #5A55AA",
"#. c #5C57AF",
"$. c #5C57B1",
"%. c #6E69A6",
"&. c #635FC5",
"*. c #6461C9",
"=. c #7977CF",
"-. c #6968DB",
";. c #6C6BE3",
":. c #6F6EEC",
">. c #7070F0",
",. c #878181",
"<. c #8A8181",
"1. c #8B8383",
"2. c #8B8484",
"3. c #8C8484",
"4. c #8D8484",
"5. c #8D8787",
"6. c #8F8989",
"7. c #908787",
"8. c #908888",
"9. c #938B8B",
"0. c #938D8D",
"q. c #948E8E",
"w. c #958F8F",
"e. c #989393",
"r. c #9A9393",
"t. c #9B9696",
"y. c #9C9595",
"u. c #9D9696",
"i. c #9D9797",
"p. c #9F9A9A",
"a. c #9F9B9B",
"s. c #A19A9A",
"d. c #A29E9E",
"f. c #A59E9E",
"g. c #A59F9F",
"h. c #9E99AF",
"j. c #A6A1A1",
"k. c #A7A3A3",
"l. c #A8A2A2",
"z. c #A9A5A5",
"x. c #AAA6A6",
"c. c #ADA9A9",
"v. c #AFAAAA",
"b. c #B1ABAB",
"n. c #B2ADAD",
"m. c #B1AEAE",
"M. c #B3AEAE",
"N. c #B4AFAF",
"B. c #B7B2B2",
"V. c #BBB9B9",
"C. c #BCB8B8",
"Z. c #BEBDBD",
"A. c #BFBEBE",
"S. c #C0BCBC",
"D. c #C1BEBE",
"F. c #C3C0C0",
"G. c #C4C2C2",
"H. c #C6C2C2",
"J. c #C7C4C4",
"K. c #C8C5C5",
"L. c #C9C5C5",
"P. c #C8C8C8",
"I. c #CBC8C8",
"U. c #CCC9C9",
"Y. c #CCCBCB",
"T. c #CDCCCC",
"R. c gray81",
"E. c #D0D0D0",
"W. c gray82",
"Q. c #D3D1D1",
"!. c #D3D2D2",
"~. c #D5D2D2",
"^. c gray84",
"/. c #D8D6D6",
"(. c #D9D7D7",
"). c #DBD9D9",
"_. c #DCDBDB",
"`. c #DDDCDC",
"'. c #C6C5E3",
"]. c #D0D0F0",
"[. c #E1E1E1",
"{. c #E2E1E1",
"}. c gray89",
"|. c #E4E3E3",
" X c #E7E6E6",
".X c #E7E7E7",
"XX c gray91",
"oX c #E9E9E9",
"OX c gray92",
"+X c #EDECEC",
"@X c gray93",
"#X c #EEEEEE",
"$X c #EFEFEF",
"%X c gray94",
"&X c None",
/* pixels */
"&X&X&X&X&X&X&X&X&X&X&X&X&X&X&X&X&X&X&X&X&X&X&X",
"&X&X&X&X&X&X&X&X&X&X&X&X&X&X&X&X&X&X&X&X&X&X&X",
"&X&X&X&X&X&X&X&X&X&X&X&X&X&X&X&X&X&X&X&X&X&X&X",
"&X&X&X&X&X&X&X@ @ @ @ @ @ @ @ @ &X&X&X&X&X&X&X",
"&X&X&X&X&X&Xn ] 3.8.8.8.8.8.1.' z &X&X&X&X&X&X",
"&X&X&X&X&Xl _ W.oX%X%X%X%X%X.XR.! k &X&X&X&X&X",
"&X&X&X&X  i.`.OX$X%X%X%X%X%X#XOX_.0.# &X&X&X&X",
"&X&X&X7 } K.%X%X%X%X%X%X%X%X%X%X%XD.` : &X&X&X",
"&X&X&X8 V.}.%X%X%X%X%X%X~.U.U.U. X[.m.; &X&X&X",
"&X&X&Xq Q.#X%X%X%X%X%X%XQ e e e H.@XJ., &X&X&X",
"&X&X&Xe /.%X%X%X%X%X%X%XH @ @ @ S.%XU.2 &X&X&X",
"&X&X&Xe /.%X%X%X%X%X%X%XH @ @ @ S.).x.< &X&X&X",
"&X&X&Xe /.%X%X%X%X%X%X%XH @ @ @ S.s.3 &X&X&X&X",
"&X&X&X9 G..X%X%X%XM.g.%Xb.y.y.y.).I.7.1 &X&X&X",
"&X&X&X6 e.Y.oX+XL.<.[ S.S.S.S.S.S.S.f.- &X&X&X",
"&X&X&X&X> q.^.|.S r.v.2 2 2 2 2 2 2 ; @ &X&X&X",
"&X&X&X&X@ x W ~ 4 y.(.l.j E <.@ <.~ @ @ &X&X&X",
"&X&X&X&X$ % 5 A = y.%X%X4.8.9.@ 9.) % . &X&X&X",
"&X&X&X&X&X@ F Z.y y.%X%X%X8.@ @ @ @ @ &X&X&X&X",
"&X&X&X&Xo X 6 T ,.| u.%X%XU.l.l.w.L @ &X&X&X&X",
"&X&X&X&X@ h F K 5.D B N.N.N.N.N.p./ @ &X&X&X&X",
"&X&X&X&X@ 6.P.Z.y @ @ @ @ @ @ @ @ @ &X&X&X&X&X",
"&X&X&X&X&XV F G O.#.%.e.r Q 9.@ &X&X&X&X&X&X&X",
"&X&X&X&X&X&X  * *.>.=.6.w E <.@ &X&X&X&X&X&X&X",
"&X&X&X&X&X&X&X* *.>.#.@ @ @ @ @ &X&X&X&X&X&X&X",
"&X&X&X&X&X&Xs @.f $.-.#.h.j.{ @ &X&X&X&X&X&X&X",
"&X&X&X&X&Xd o.;.u X.>.>.].}.c.@ O &X&X&X&X&X&X",
"&X&X&X&X@ +.>.;.i ..;.;.'.|.B.@ @ @ &X&X&X&X&X",
"&X&X&X&X@ +.>.:.&. .p p Z H c @ @ @ &X  &X&X&X",
"&X&X&X&XX g +.+.+.a @ @ @ @ @ @ @ $ &X^ M &X&X",
"&X@ & ; ; & @ @ @ @ @ @ @ @ @ @ - 2 S {.Y @ &X",
"&X@ C d.d.C @ @ @ @ @ @ @ @ @ @ y.S.F.E.J @ &X",
"&X@ U A.5.z @ + . @ @ @ @ O @ @ S.XXT.2.m &X&X",
"&Xo I k.b - X % &X&X&X&X&X&XO @ C.!.a.> &X&X&X",
"&X&Xt K n.P   &X&X&X&X&X&X&X&X@ z.t.v &X&X&X&X",
"&X&X&X0 0.N @ &X&X&X&X&X&X&X&X@ ( R &X&X&X&X&X",
"&X&X&X&X@ @ @ &X&X&X&X&X&X&X&X&X@ @ &X&X&X&X&X"
};
