/* XPM */
static char *bef25626bf2e4c04d8a12f5323704c1a1Yp1w8RSsKYoXoVR[] = {
/* columns rows colors chars-per-pixel */
"35 57 16 1 ",
"  c #A838F8",
". c #A000F8",
"X c black",
"o c #88C858",
"O c #B8F868",
"+ c #789850",
"@ c #F8A858",
"# c #F8F8B0",
"$ c #D89070",
"% c #F8F8C8",
"& c #F8F8B8",
"* c #F8F898",
"= c #A0A068",
"- c #A0B898",
"; c #78E088",
": c white",
/* pixels */
"OOOOOOOOOOOOOOOOOOOOOOOOOOOOOOOOOOO",
"OOOOOOOOOOOOOOOOOOOOOOOOOOOOOOOOOOO",
"OOOOOOOOXXXXXXXXXXXXXXXXXXOOOOOOOOO",
"OOOOOOXX++OOOOOooooooo++++XXOOOOOOO",
"OOOOXXooooOOOOOooooooo+++++oXXOOOOO",
"OOOX+oooooOOOOOooooooo++++ooooXOOOO",
"OOX+ooooooOOOOOoooooooo+++oooooXOOO",
"OXoooooooOOOOOOoooooooo++++oooooXOO",
"OXoooooooOOOOOOoooooooo++++oooooXOO",
"OXoooooooOOOOOOoooooooo++++oooooXOO",
"OXXooooooOOOOOooooooooo++++ooooXXOO",
"OX@XooooOOOOOOoooooooooo++++ooX@XOO",
"OX@@XXooOOOOOOoooooooooo++++XX@@XOO",
"OX@@@#XXOOOOOOoooooooooo++XX$@@@XOO",
"OX@@@###XXXXXOoooooooXXXXX$$$@@@XOO",
"OX@@@###@XXXXXXXXXXXXXXXX@$$$@@@XOO",
"OX@@@###@X######XX######X@$$$@@@XOO",
"OX@@@###@X#XXXX#XX#XXXX#X@$$$@@@XOO",
"OX@@@###@X#XXXX#XX#XXXX#X@$$$@@@XOO",
"OX@@@###@X#XXXX#XX#XXXX#X@$$$@@@XOO",
"OX@@@###@X#XXXX#XX#XXXX#X@$$$@@@XOO",
"OX@@@###@X#XXXX#XX#XXXX#X@$$$@@@XOO",
"OX@@@###@X#XXXX#XX#XXXX#X@$$$@@@XOO",
"OX@@@###@X######XX######X@$$$@@@XOO",
"OX@@@###@X#X##X#XX#X##X#X@$$$@@@XOO",
"OX@@@###@X#XXXX#XX#XXXX#X@$$$@@@XOO",
"OX@@@###@X#XXXX#XX#XXXX#X@$$$@@@XOO",
"OX@@@###@X#XXXX#XX#XXXX#X@$$$@@@XOO",
"OX@@@###@X#XXXX#XX#XXXX#X@$$$@@@XOO",
"OX@@@###@X######XX######X@$$$@@@XOO",
"OX@@@###@XXXXXXXXXXXXXXXX@$$$@@@XOO",
"OX@@@###@@@@$$XXXXXX##@@@@$$$@@@XOO",
"OX@@@###@@@$XX@@@@@@XX#@@@$$$@@@XOO",
"OX@@@###@@$X@@$$$@@@@@X#@@$$$@@@XOO",
"OX@@@###@$X@@$$$$$$@@@@X#@$$$@@@XOO",
"OX@@@###@$X@$$@@@$$$@@@X#@$$$@@@XOO",
"OX@@@###$X@$$@@@@@$$$@@@X#$$$@@@XOO",
"OX@@@###$X$$@@@@@@@$$$@@X#$$$@@@XOO",
"OX@@@###$X$@@@@@@@@@$$@@X#$$$@@@XOO",
"OX@@@###$X$@@$$$@@@@$$@@X#$$$@@@XOO",
"OX@@@###$X@@$$@$$@@@@$$@X#$$$@@@XOO",
"OX@@@###$X@@XX@@$@@@@$$@X#$$$@@@XOO",
"OX@@@###$X@X#=@@$@@@@$$@X#$$$@@@XOO",
"OX@@@###$X$X#X@@$$@@@$$@X#$$$@@@XOO",
"OX@@@###$X$X==@@@$@@@$$@X#$$$@@@XOO",
"OX@@@###$X@@XX$@@$@@@$$@X#$$$@@@XOO",
"OX@@@###$X@$$@@$@$@@@$$@X#$$$@@@XOO",
"OX@@@###$X@$@@@$@$$@@$$@X#$$$@@@XOO",
"OX@@@###$X@$@$@$@$$@@$$@X#$$$@@@XOO",
"OoX@@###$X@$@$@$@$$@@$$@X#$$$@@XoOO",
"OoX@@###$X@$@$@$@$$@@$$@X#$$$@@XoOO",
"OooX@###$X@$@$@$@$$@@$$@X#$$$@XooOO",
"OoooXX##$X$$@$@$@$$@@$$@X#$$XXoooOO",
"OOooooXXXX$@$$@$@$$@@$$@XXXXooooOOO",
"OOOOooooooXXXXXXXXXXXXXXooooooOOOOO",
"OOOOOOOOOOOOOOOOOOOOOOOOOOOOOOOOOOO",
"OOOOOOOOOOOOOOOOOOOOOOOOOOOOOOOOOOO"
};
