/* XPM */
static char *_3b6dc130e0a4107d8c9f8bf5cf1b2c3NCcFu4TMCOPgp2lL[] = {
/* columns rows colors chars-per-pixel */
"35 57 3 1 ",
"  c #B8F868",
". c #88C858",
"X c white",
/* pixels */
"                                   ",
"                                   ",
"                                   ",
"                                   ",
"                                   ",
"                                   ",
"                                   ",
"                                   ",
"                                   ",
"                                   ",
"                                   ",
"                                   ",
"                                   ",
"                                   ",
"                                   ",
"                                   ",
"     ..    ...       ..    ...     ",
"      ..  ...         ..  ...      ",
"  ...  .. .. ...  ...  .. .. ...   ",
"    .. .. . ..      .. .. . ..     ",
"     .  . . .        .  . . .      ",
"                                   ",
"                                   ",
"                                   ",
"                     ..    ...     ",
"                      ..  ...      ",
"                  ...  .. .. ...   ",
"                    .. .. . ..     ",
"                     .  . . .      ",
"                                   ",
"                                   ",
"                                   ",
"                                   ",
"                                   ",
"                                   ",
"                                   ",
"                                   ",
"                                   ",
"                                   ",
"                                   ",
"             ..    ...             ",
"              ..  ...              ",
"          ...  .. .. ...           ",
"            .. .. . ..             ",
"             .  . . .              ",
"                                   ",
"                                   ",
"                                   ",
"                     ..    ...     ",
"                      ..  ...      ",
"                  ...  .. .. ...   ",
"                    .. .. . ..     ",
"                     .  . . .      ",
"                                   ",
"                                   ",
"                                   ",
"                                   "
};
