/* XPM */
static char *result[] = {
/* columns rows colors chars-per-pixel */
"23 37 249 2 ",
"   c #2F1F1F",
".  c #301F1F",
"X  c #3C1E24",
"o  c #2F2020",
"O  c #302020",
"+  c #362620",
"@  c #362523",
"#  c #3B2124",
"$  c #382725",
"%  c #362825",
"&  c #372927",
"*  c #3A2826",
"=  c #3B2926",
"-  c #3D2A27",
";  c #3A2B2B",
":  c #3E2B28",
">  c #3F2B28",
",  c #3C2D2D",
"<  c #362733",
"1  c #4F3F1F",
"2  c #4F1A2A",
"3  c #4E1B2A",
"4  c #53192B",
"5  c #541A2C",
"6  c #5A192E",
"7  c #4F1D31",
"8  c #661732",
"9  c #601830",
"0  c #731436",
"q  c #422D2A",
"w  c #432F2B",
"e  c #442F2B",
"r  c #4C3C20",
"t  c #4E3E20",
"y  c #4A352F",
"u  c #542532",
"i  c #483330",
"p  c #4A3C36",
"a  c #473939",
"s  c #483939",
"d  c #543535",
"f  c #503832",
"g  c #543B35",
"h  c #583F36",
"j  c #5B4B20",
"k  c #5A4138",
"l  c #5B4239",
"z  c #5C4339",
"x  c #5E433B",
"c  c #5F453B",
"v  c #6F5F24",
"b  c #7D6D20",
"n  c #7E6B26",
"m  c #3D2D45",
"M  c #3C2F47",
"N  c #3D314D",
"B  c #483B41",
"V  c #4C3F42",
"C  c #43385F",
"Z  c #453A65",
"A  c #483E6E",
"S  c #544747",
"D  c #544848",
"F  c #4F445F",
"G  c #574B50",
"H  c #694A41",
"J  c #694C41",
"K  c #6E4C40",
"L  c #6E4E44",
"P  c #6F4F45",
"I  c #6E5044",
"U  c #695D48",
"Y  c #745347",
"T  c #745647",
"R  c #775649",
"E  c #78564A",
"W  c #775949",
"Q  c #79594A",
"!  c #7A5B4B",
"~  c #7F5B4E",
"^  c #605353",
"/  c #7E5C59",
"(  c #686B58",
")  c #7B6155",
"_  c #635B7B",
"`  c #716767",
"'  c #797171",
"]  c #7A7070",
"[  c #82123B",
"{  c #84113C",
"}  c #88113D",
"|  c #8A113E",
" . c #8A5411",
".. c #B9790C",
"X. c #A97310",
"o. c #8D5D2E",
"O. c #9A0E43",
"+. c #9C0E44",
"@. c #9C1947",
"#. c #AE0B4A",
"$. c #A80C48",
"%. c #902646",
"&. c #973A55",
"*. c #B42854",
"=. c #BF345B",
"-. c #CC0654",
";. c #C00850",
":. c #E7015D",
">. c #E4025C",
",. c #C6385F",
"<. c #CD1575",
"1. c #EB0A64",
"2. c #F00060",
"3. c #F00965",
"4. c #F02C6C",
"5. c #E43A7D",
"6. c #F03072",
"7. c #815C4F",
"8. c #825F4F",
"9. c #845F51",
"0. c #84644B",
"q. c #876153",
"w. c #896654",
"e. c #8D6556",
"r. c #8B6854",
"t. c #8F6B57",
"y. c #96675A",
"u. c #916C58",
"i. c #946C5A",
"p. c #996E5D",
"a. c #837758",
"s. c #98725C",
"d. c #9A705E",
"f. c #9C715F",
"g. c #846D7D",
"h. c #A87C66",
"j. c #AC7D68",
"k. c #AE7E69",
"l. c #D04D7B",
"z. c #DE5B72",
"x. c #E44F71",
"c. c #F05878",
"v. c #A38A1C",
"b. c #BB8611",
"n. c #A79720",
"m. c #AE9F24",
"M. c #A49428",
"N. c #DEA610",
"B. c #D7BD1B",
"V. c #C0B020",
"C. c #D8C528",
"Z. c #D9CA2D",
"A. c #AD8A55",
"S. c #B4836D",
"D. c #B3856C",
"F. c #B4876C",
"G. c #B9876F",
"H. c #B5896D",
"J. c #B7896E",
"K. c #BB8B71",
"L. c #BC8E71",
"P. c #BD8E72",
"I. c #C08C74",
"U. c #C98C79",
"Y. c #C49476",
"T. c #C59477",
"R. c #CC987B",
"E. c #CD987B",
"W. c #CD9B7B",
"Q. c #D2997E",
"!. c #D19D7D",
"~. c #5A4F8C",
"^. c #544D96",
"/. c #6B6384",
"(. c #6A6394",
"). c #5852A2",
"_. c #5A54A8",
"`. c #5B55AB",
"'. c #645EA2",
"]. c #615BAB",
"[. c #6360BF",
"{. c #6965C5",
"}. c #6765D3",
"|. c #6866D6",
" X c #7364DA",
".X c #6D6CE6",
"XX c #726DED",
"oX c #7070F0",
"OX c #B9309D",
"+X c #8B488C",
"@X c #987781",
"#X c #B47682",
"$X c #E25B91",
"%X c #E96A9C",
"&X c #F079A9",
"*X c #984DC3",
"=X c #9053CB",
"-X c #8174CF",
";X c #919687",
":X c #9B918B",
">X c #B58395",
",X c #958FA2",
"<X c #9A94A2",
"1X c #B3B0B0",
"2X c #D59B80",
"3X c #D79D81",
"4X c #D79E81",
"5X c #D99E82",
"6X c #E48989",
"7X c #ED8F8E",
"8X c #F09090",
"9X c #F09290",
"0X c #F09890",
"qX c #F09990",
"wX c #F09A90",
"eX c #F09F90",
"rX c #DCA184",
"tX c #DFA386",
"yX c #D8A891",
"uX c #E0A686",
"iX c #E7A38A",
"pX c #E4A789",
"aX c #EAA28C",
"sX c #E2A888",
"dX c #E7AA8A",
"fX c #E8AB8B",
"gX c #E9AC8C",
"hX c #EBAD8D",
"jX c #EDAE8E",
"kX c #EEAF8F",
"lX c #F0A690",
"zX c #F0AA90",
"xX c #F0AB90",
"cX c #F0AE90",
"vX c #F0AF90",
"bX c #F0B090",
"nX c #F0B395",
"mX c #F0C0A8",
"MX c #F0C2AC",
"NX c #8582C9",
"BX c #9080D8",
"VX c #9084DE",
"CX c #A9A8C6",
"ZX c #8D8CEC",
"AX c #9796E6",
"SX c #CCC9C9",
"DX c #D8D2D0",
"FX c #E4E3E3",
"GX c None",
/* pixels */
"GXGXGXGXGXGXGXGXGXGXGXGXGXGXGXGXGXGXGXGXGXGXGX",
"GXGXGXGXGXGXGXGXGXGXGXGXGXGXGXGXGXGXGXGXGXGXGX",
"GXGXGXGXGXGXGXGXGXGXGXGXGXGXGXGXGXGXGXGXGXGXGX",
"GXGXGXGXGXGXGXGXO O O O O O O GXGXGXGXGXGXGXGX",
"GXGXGXGXGXO O   q k.I.7.g I.I.P GXGXGXGXGXGXGX",
"GXGXGXGXGX[ 6 3 @.x.c.,.%.y.z.#X] GXGXGXGXGXGX",
"GXGXGXGX5 #.} { 2.2.2.2.;.X -.&X>X7 m B a GXGX",
"GXGXGX4 >.8 O.:.2.2.2.2.;.X -.3.1.<. XCX'   GX",
"GXGXGX5 2.9 +.2.2.2.2.2.;.X -.OX*X=XXX_ D GXGX",
"GXGXGX2 $.3 0 $.$.$.$.$.| # =.+X).).).N GXGXGX",
"GXGXGXGXO O O O O O - w e f F.Q > O O GXGXGXGX",
"GXGXGX. O O O O O O r.H.P.5XdXtXp.O O GXGXGXGX",
"GXGXGXO O O O y ! * s.!.sXbXbXj.e.q.@ GXGXGXGX",
"GXGXGXO O O O c L.R D.uXbXbXbXE E 3XY GXGXGXGX",
"GXGXGXo O O O z Y.gXcXcXcXcXvX~ ~ jXpXx GXGXGX",
"GXGXGXGXO O O = J rXeX0X0XqXxXQ.Q.2XH GXGXGXGX",
"GXGXGXGXGXO k 8.f.pXwX8X8X9XzXbXfXK.* GXGXGXGX",
"GXGXGXGXGXO W J.dXkXwX8X8X7XU.4XR.u.$ GXGXGXGX",
"GXGXGXGXGXGXO c W.hXwX8X8X6Xd t.t.O GXGXGXGXGX",
"GXGXGXGXO O . : I T.iXlXlXaXh.T h GXGXGXGXGXGX",
"GXGXGXGXO   j b n 0.i.G.E.d.w.l GXGXGXGXGXGXGX",
"GXGXGXGXGX1 v.B.m.V M ) A.t + GXGXGXGXGXGXGXGX",
"GXGXGXGXO n.N...p [.|.:XC.V.r GXGXGXGXGXGXGXGX",
"GXGXGXGXO b.X.K `..X^./.<X,X'.C GXGXGXGXGXGXGX",
"GXGXGXGXO  .o.g.AX].U a.<X<X<XG O GXGXGXGXGXGX",
"GXGXGXGXO . f.MXDXs M.Z.Z.Z.Z.v O GXGXGXGXGXGX",
"GXGXGXGXGX. f.nXyXi (.NXNXNXNXF O GXGXGXGXGXGX",
"GXGXGXGXGXGXL 9./ ~.}.oXoXoXoXA O GXGXGXGXGXGX",
"GXGXGXGXGXGXGX  < _.-XBXVXZX{.Z GXGXGXGXGXGXGX",
"GXGXGXGXGXGXGXGXO O S.bXmXFXS GXGXGXGXGXGXGXGX",
"GXGXGXGXGXGXGXGXGXo *.4.6.5.u GXGXGXGXGXGXGXGX",
"GXGXGXGXGXGXGXGXGXO &.l.$X%X@X^ GXGXGXGXGXGXGX",
"GXGXGXGXGXGXGXGXGX. ( ;X1XSXSX` o GXGXGXGXGXGX",
"GXGXGXGXGXGXGXGXGXGX% & ; , , GXGXGXGXGXGXGXGX",
"GXGXGXGXGXGXGXGXGXGXGXGXGXGXGXGXGXGXGXGXGXGXGX",
"GXGXGXGXGXGXGXGXGXGXGXGXGXGXGXGXGXGXGXGXGXGXGX",
"GXGXGXGXGXGXGXGXGXGXGXGXGXGXGXGXGXGXGXGXGXGXGX"
};
