/* XPM */
static char *result[] = {
/* columns rows colors chars-per-pixel */
"20 33 168 2 ",
"   c #2F1F1F",
".  c #301F1F",
"X  c #321F21",
"o  c #3B1E24",
"O  c #2F2020",
"+  c #302020",
"@  c #3C2927",
"#  c #34252C",
"$  c #3B2C2C",
"%  c #372826",
"&  c #382A3A",
"*  c #422A1D",
"=  c #5C3A19",
"-  c #441C26",
";  c #591A2E",
":  c #691633",
">  c #7B1439",
",  c #422E2A",
"<  c #4A342F",
"1  c #4E3E24",
"2  c #533C2E",
"3  c #473939",
"4  c #4A3834",
"5  c #543C35",
"6  c #543634",
"7  c #5D2834",
"8  c #75203B",
"9  c #613C3C",
"0  c #3F463F",
"q  c #5E441C",
"w  c #6A4818",
"e  c #5C4C20",
"r  c #5D433A",
"t  c #665620",
"y  c #63463E",
"u  c #7D6D20",
"i  c #7A6C3A",
"p  c #3B2E44",
"a  c #3D3044",
"s  c #3F3353",
"d  c #403454",
"f  c #473958",
"g  c #483E6E",
"h  c #5A4E4E",
"j  c #5D5252",
"k  c #4E4959",
"l  c #694C41",
"z  c #694A44",
"x  c #784A4A",
"c  c #734747",
"v  c #7B544A",
"b  c #765648",
"n  c #735B58",
"m  c #4F4873",
"M  c #644D62",
"N  c #635068",
"B  c #776C6C",
"V  c #7D7575",
"C  c #6D7663",
"Z  c #8A113E",
"A  c #9B6310",
"S  c #B76E09",
"D  c #887820",
"F  c #826A36",
"G  c #9C0E44",
"H  c #8D1941",
"J  c #901040",
"K  c #A60C47",
"L  c #B11551",
"P  c #9C204A",
"I  c #95344C",
"U  c #C50752",
"Y  c #D90458",
"T  c #E40C5F",
"R  c #E90969",
"E  c #F00060",
"W  c #ED1364",
"Q  c #F0146A",
"!  c #CA277F",
"~  c #815F4F",
"^  c #845F51",
"/  c #965359",
"(  c #856153",
")  c #8F6A57",
"_  c #8B6356",
"`  c #946C5A",
"'  c #9A6F5E",
"]  c #99735D",
"[  c #8E717A",
"{  c #907870",
"}  c #94706C",
"|  c #A77A65",
" . c #A97A66",
".. c #AB6265",
"X. c #CD666D",
"o. c #C66D76",
"O. c #E2AA10",
"+. c #EAA60B",
"@. c #C8B820",
"#. c #E0CD1E",
"$. c #D2C43A",
"%. c #E0D020",
"&. c #B5866E",
"*. c #BA8770",
"=. c #BE9072",
"-. c #C4B854",
";. c #C48D75",
":. c #CA9579",
">. c #D29C7E",
",. c #EBBA6D",
"<. c #713C85",
"1. c #4E4581",
"2. c #504889",
"3. c #544D95",
"4. c #584F91",
"5. c #67598A",
"6. c #736D95",
"7. c #5C57AE",
"8. c #5D58B3",
"9. c #7F7CBC",
"0. c #7568B8",
"q. c #6461CA",
"w. c #6866D6",
"e. c #6967D9",
"r. c #7474E8",
"t. c #7070F0",
"y. c #6C6BE3",
"u. c #C02A96",
"i. c #A77C8B",
"p. c #EB5591",
"a. c #EA4382",
"s. c #CE6E91",
"d. c #D86A96",
"f. c #E47887",
"g. c #F07E8A",
"h. c #895AD3",
"j. c #917CC5",
"k. c #8D8585",
"l. c #958D8D",
"z. c #9C9797",
"x. c #A3828D",
"c. c #A8A088",
"v. c #AB9CA1",
"b. c #B1ACAC",
"n. c #D69F80",
"m. c #D89E82",
"M. c #DE9285",
"N. c #E48086",
"B. c #F09090",
"V. c #F09A90",
"C. c #E49283",
"Z. c #DBA183",
"A. c #D7A181",
"S. c #D0A39D",
"D. c #E1A587",
"F. c #E6A88A",
"G. c #ECAD8D",
"H. c #E8A088",
"J. c #F0A390",
"K. c #F0A890",
"L. c #F0B090",
"P. c #CF96AD",
"I. c #D0A0A8",
"U. c #C4B5B7",
"Y. c #F0C8B4",
"T. c #8784C6",
"R. c #CFCCCC",
"E. c None",
/* pixels */
"E.E.E.E.E.E.E.E.E.E.E.E.E.E.E.E.E.E.E.E.",
"E.E.E.E.E.E.E.+ . . + + + E.E.E.E.E.E.E.",
"E.E.E.E.E.E.  6 / c @ y x c E.E.E.E.E.E.",
"E.E.E.E.- X - / B.X.7 ..N.o.3 E.E.E.E.E.",
"E.E.E.; Y - K T Q W Y 8 G a.R.3 + + + E.",
"E.E.> K > G Y T E E E : J Q p.L <.6.V + ",
"E.+ Z U - Y E E E E E : J R u.u.h.9.V + ",
"E.O Z K o U Y Y Y Y Y : Z u.e.e.w.1.O E.",
"E.E.o o + o o @ o o o . ~ | X # # # E.E.",
"E.E.O O + . +   < ' ]  .:.m. ., + E.E.E.",
"E.+ + + . . r 5 5 :.A.G.L.m.' ^ < E.E.E.",
"E.+ + O     ] ) b >.G.L.G.;., m.^ 4 E.E.",
"E.+ + + + + ] >.F.G.L.L.L.=.@ >.G.) X E.",
"E.E.O + O + 5  .K.V.V.V.J.D.&.G.` 5 E.E.",
"E.E.E.. + l ~ *.K.B.B.B.J.L.G.D.y E.E.E.",
"E.E.E.E.@ ] n.G.K.B.B.B.M.>.F.&.y E.E.E.",
"E.E.E.E.E.X ] >.K.B.B.B./ 5 =., E.E.E.E.",
"E.E.E.X . X < ` A.K.J.J.:.` 5 E.E.E.E.E.",
"E.E.E.+ % u D i ~ ` >. .( b E.E.E.E.E.E.",
"E.E.E.E.t @.@.i d f l.N & O E.E.E.E.E.E.",
"E.E.E.e %.%.t 2.t.t.t.t.2.+ E.E.E.E.E.E.",
"E.E.E.e #.+.w 2.T.-.-.n & + X E.E.E.E.E.",
"E.E.E.q O.A M m 5.c.c.{ { B + E.E.E.E.E.",
"E.E.E.= S @ 2.m s r.T.S.Y.U.d E.E.E.E.E.",
"E.E.E.E.+ + + + d r.$.,.G.I.y.& E.E.E.E.",
"E.E.E.E.% 8.q.q.7.a q 2 5.0.p X E.E.+ E.",
"E.E.+ 5 ( m q.t.e.3.3.3.2.1.4.} y B k.+ ",
"E.+ 3 n X.x 5.8.7.7.7.7.m k T.f.I i.b.+ ",
"E.  V P.R C.y + + + + + 0 C :.W E d.z.O ",
"E.  V v.; < @ + E.E.E.E.# z H.W d.[ r E.",
"E.E.j V l.$ . E.E.E.E.E.E.5 ^ d.[ j E.E.",
"E.E.E.h b.< E.E.E.E.E.E.E.E.$ k.h E.E.E.",
"E.E.E.E.+ + E.E.E.E.E.E.E.E.E.+ E.E.E.E."
};
