/* XPM */
static char *result[] = {
/* columns rows colors chars-per-pixel */
"23 37 177 2 ",
"   c #2F1F1F",
".  c #301F1F",
"X  c #3A271E",
"o  c #3A1E24",
"O  c #2F2020",
"+  c #302020",
"@  c #3A2625",
"#  c #3B2A23",
"$  c #33242B",
"%  c #3D2B2A",
"&  c #372938",
"*  c #3A3A35",
"=  c #54351A",
"-  c #643E17",
";  c #4A1C29",
":  c #461C27",
">  c #57192D",
",  c #6B1634",
"<  c #661732",
"1  c #7B1339",
"2  c #422D2A",
"3  c #483820",
"4  c #4A352F",
"5  c #5D2131",
"6  c #473C39",
"7  c #4C3B38",
"8  c #523434",
"9  c #533B34",
"0  c #5A3D38",
"q  c #54262F",
"w  c #633E3E",
"e  c #5A451E",
"r  c #6C4316",
"t  c #755519",
"y  c #744A17",
"u  c #72601F",
"i  c #594920",
"p  c #524220",
"a  c #5D4638",
"s  c #51503B",
"d  c #484038",
"f  c #604F20",
"g  c #675720",
"h  c #62433D",
"j  c #654A3E",
"k  c #736320",
"l  c #7D6D20",
"z  c #3B2E46",
"x  c #3F3250",
"c  c #3E3146",
"v  c #403454",
"b  c #42365A",
"n  c #493C40",
"m  c #463C69",
"M  c #4F4640",
"N  c #564A46",
"B  c #445248",
"V  c #585648",
"C  c #485C50",
"Z  c #6B4242",
"A  c #6A4B41",
"S  c #644441",
"D  c #774A49",
"F  c #6D5742",
"G  c #775449",
"H  c #655959",
"J  c #666856",
"K  c #4A4175",
"L  c #6D576D",
"P  c #6A6060",
"I  c #736A6A",
"U  c #757966",
"Y  c #8F0F3F",
"T  c #84123C",
"R  c #8D103F",
"E  c #905810",
"W  c #8A5411",
"Q  c #8D7B1F",
"!  c #9D6711",
"~  c #A8660C",
"^  c #B8700C",
"/  c #C87C08",
"(  c #9E0D45",
")  c #920F41",
"_  c #901040",
"`  c #9C1947",
"'  c #A80C48",
"]  c #903149",
"[  c #902646",
"{  c #AD1B6B",
"}  c #942B62",
"|  c #CB0654",
" . c #D50457",
".. c #DC0359",
"X. c #E3025B",
"o. c #EC015F",
"O. c #CC275D",
"+. c #F00060",
"@. c #F00B63",
"#. c #EA1162",
"$. c #CC3B62",
"%. c #855151",
"&. c #985C5C",
"*. c #876252",
"=. c #936A5A",
"-. c #906256",
";. c #9A715E",
":. c #8A764F",
">. c #847B7B",
",. c #A86666",
"<. c #B46D6D",
"1. c #A87966",
"2. c #AD7F69",
"3. c #DE4A6D",
"4. c #F04773",
"5. c #C06068",
"6. c #C97170",
"7. c #7F896F",
"8. c #B6991B",
"9. c #9E8E20",
"0. c #AA9A20",
"q. c #A4953F",
"w. c #B4A420",
"e. c #BFAF20",
"r. c #D78606",
"t. c #C9870C",
"y. c #E59406",
"u. c #D0B31B",
"i. c #E7A30B",
"p. c #E4B814",
"a. c #E3C319",
"s. c #E1CC1E",
"d. c #D7C720",
"f. c #E0D020",
"g. c #93896E",
"h. c #849074",
"j. c #BE9072",
"k. c #B08674",
"l. c #BDB261",
"z. c #B1AA72",
"x. c #C18D75",
"c. c #CB957A",
"v. c #D2967E",
"b. c #D6A56D",
"n. c #554E94",
"m. c #756E91",
"M. c #5852A2",
"N. c #5C57AF",
"B. c #6259B6",
"V. c #7F7DB7",
"C. c #716FD1",
"Z. c #6C6BE3",
"A. c #7070F0",
"S. c #B5308F",
"D. c #817CAF",
"F. c #7F81A9",
"G. c #7E85BF",
"H. c #88909F",
"J. c #938F87",
"K. c #A29E9E",
"L. c #90A080",
"P. c #9EA592",
"I. c #ACA78E",
"U. c #A7A2A2",
"Y. c #AFB6A8",
"T. c #A6A4B9",
"R. c #D98382",
"E. c #E7928B",
"W. c #D9AF9B",
"Q. c #E4A789",
"!. c #E1AD8D",
"~. c #E0B081",
"^. c #C89CAE",
"/. c #F0BFA6",
"(. c #D8C1B6",
"). c #D8D6D6",
"_. c None",
/* pixels */
"_._._._._._._._._._._._._._._._._._._._._._._.",
"_._._._._._._._._._._._._._._._._._._._._._._.",
"_._._._._._._.> q 9 @ 2 8 X   @ 9 _._._._._._.",
"_._._.. + O O ( $.x.0 G k.2   9 j.G + O _._._.",
"_._.7 I 7 ; _  .O.=.-.<.3.` _ [ &.] Y R > _._.",
"_._.7 T.L R +. .' 5 6.4.+.o.o.| > (  .o.1 ; _.",
"_._.v C.S.X.+.1 1 ..#.@.+.+.+.o. .1 1 +.X._ + ",
"_._.& K { +.+., 1 +.+.+.+.+.+.+.+.1 , +.+.( + ",
"_._._.+ R | | 1 _ +.+.+.+.+.+.+.+.R 1 | | R   ",
"_._._.+ : : : ' X.+.+.+.+.+.+.+.+.X.' : : : _.",
"_._.+ + + + O < T T T T T T T T T T < O o   o ",
"_._.@ a % O O o + + + + + + + O + + O O 9 4 . ",
"_._.9 c.G O + + O + O o O O + + + o O @ k.=.X ",
"_._.7 x.A X O O + + O O O O + + + + O # x.;.. ",
"_._.4 ;.G 8   O X     O O O O +   o % h 1.-.+ ",
"_._._.@ ,.,.            O O O O   . Z R.h @ _.",
"_._._._.Z %.,.8 + . + + O + O O   D &.D 8 _._.",
"_._._._._.w <.%.S a % + + + 4 a S &.&.+ _._._.",
"_._._._._._.+ <.E.j.9 + + + *.v.E.D + _._._._.",
"_._._._._._._.Z A j % + + + 9 A D 0 _._._._._.",
"_._._._._._._.b c X i g g g 3 % m v _._._._._.",
"_._._._._._.+ N.M.# w.f.f.f.l v Z.m O _._._._.",
"_._._._._.f 0.V.M.@ i g g g 3 b Z.g.Q o _._._.",
"_._._._.j :.z.m.L u y = X y t j n.g.g.m z _._.",
"_._._.o 1.^.A.m k f.i.W = r.p.w.X M.A.Z.x   _.",
"_._.M U.W.b.b.a k f.p.u.8.u.s.w.# :.z.H.k.*.+ ",
"_._.M (./.b.9.p t p.f.e.0.d.a.8.X u q.I.!.;.+ ",
"_._.9 v.~.g.# O y y.p.Q e u.i.^ % @ S Q.!.;.O ",
"_._._.a j s C C s r t.r./ i.! S B.b % j S 0 _.",
"_._._.. O * B B * + W ~ ~ ~ r & n.x O O + _._.",
"_._._._._._.o O & $ + o     @ $ $ $ O _._._._.",
"_._._._._._.  n.B.B.{ 1 O   I K.K.N X _._._._.",
"_._._._._.V D.V.F.V.} < % P J.Y.Y.U N _._._._.",
"_._._._.+ H ).z.7.7.d + M U.P.L.L.L.U O _._._.",
"_._._._._._.H M d d _._._.N U L.L.L.U O _._._.",
"_._._._._._.  + O O _._._._.V J J J V o _._._.",
"_._._._._._._._._._._._._._.+ + + + + _._._._."
};
