/* XPM */
static char *_1fca25d881f4eeeaf94143c69aa89eabSpfG7eFMcmJsEGm[] = {
/* columns rows colors chars-per-pixel */
"17 31 179 2 ",
"   c None",
".  c #2C1B1B",
"X  c #311E1D",
"o  c #2E211F",
"O  c #35211F",
"+  c #2B1E29",
"@  c #2C1F27",
"#  c #2A212F",
"$  c #342523",
"%  c #3A2523",
"&  c #3F2925",
"*  c #322229",
"=  c #372838",
"-  c #373631",
";  c #3C303A",
":  c #363737",
">  c #2A243D",
",  c #451625",
"<  c #4F1E36",
"1  c #63132E",
"2  c #721032",
"3  c #412A27",
"4  c #452E29",
"5  c #533831",
"6  c #5A3E35",
"7  c #443937",
"8  c #6E303A",
"9  c #3B423A",
"0  c #63531A",
"q  c #41443E",
"w  c #5C4137",
"e  c #5B553D",
"r  c #64463C",
"t  c #695B3F",
"y  c #292643",
"u  c #2F2A49",
"i  c #3A2D43",
"p  c #342E44",
"a  c #2D2D54",
"s  c #353551",
"d  c #5C1F55",
"f  c #541E49",
"g  c #473854",
"h  c #493E71",
"j  c #423E7D",
"k  c #503E79",
"l  c #3C4845",
"z  c #3C515E",
"x  c #484743",
"c  c #455A4D",
"v  c #43564C",
"b  c #595259",
"n  c #734D44",
"m  c #6F5045",
"M  c #715044",
"N  c #77554B",
"B  c #604651",
"V  c #6D5151",
"C  c #7C5E59",
"Z  c #745955",
"A  c #4E705F",
"S  c #486254",
"D  c #64635F",
"F  c #756847",
"G  c #4B4569",
"H  c #584B78",
"J  c #685365",
"K  c #4F7160",
"L  c #5E7B6D",
"P  c #5A6576",
"I  c #7D6060",
"U  c #797975",
"Y  c #776D74",
"T  c #830E39",
"R  c #930B3E",
"E  c #8A133D",
"W  c #861348",
"Q  c #811B53",
"!  c #B1115D",
"~  c #B50C53",
"^  c #892D43",
"/  c #A32655",
"(  c #D60356",
")  c #E6015C",
"_  c #F0005F",
"`  c #C6375E",
"'  c #EE0263",
"]  c #F10060",
"[  c #F00B63",
"{  c #E00D72",
"}  c #E81D6A",
"|  c #DC2863",
" . c #825D4E",
".. c #8B5355",
"X. c #975A58",
"o. c #866051",
"O. c #8B6757",
"+. c #897D59",
"@. c #9B725E",
"#. c #956B59",
"$. c #975C69",
"%. c #8B6664",
"&. c #A57662",
"*. c #A97C65",
"=. c #A87D68",
"-. c #DD496B",
";. c #E17D7C",
":. c #688375",
">. c #94813B",
",. c #9F903C",
"<. c #D2C434",
"1. c #968944",
"2. c #AA8066",
"3. c #B4856C",
"4. c #B98A6F",
"5. c #BA8A71",
"6. c #B4AB6D",
"7. c #B1A774",
"8. c #B1A874",
"9. c #CABD44",
"0. c #C88778",
"q. c #D18F7E",
"w. c #C59376",
"e. c #C69278",
"r. c #CB997A",
"t. c #4E4585",
"y. c #4B478E",
"u. c #51488C",
"i. c #4F4990",
"p. c #534D95",
"a. c #71629C",
"s. c #7D7589",
"d. c #5751A2",
"f. c #5E59B4",
"g. c #6A4FAA",
"h. c #7C79BB",
"j. c #615DC1",
"k. c #6562CC",
"l. c #6671C2",
"z. c #6967D8",
"x. c #7267D6",
"c. c #7472DD",
"v. c #6F6EE9",
"b. c #7574E6",
"n. c #7171F0",
"m. c #726BE6",
"M. c #A62A86",
"N. c #847B8C",
"B. c #8371A8",
"V. c #EC7E81",
"C. c #984DC3",
"Z. c #887AD1",
"A. c #7D9287",
"S. c #838D86",
"D. c #868186",
"F. c #918B8C",
"G. c #919592",
"H. c #AB8699",
"J. c #928DAE",
"K. c #9993A0",
"L. c #A589AE",
"P. c #ADB0AE",
"I. c #ACA7AC",
"U. c #D69D81",
"Y. c #D89F82",
"T. c #E48989",
"R. c #F09191",
"E. c #F09C91",
"W. c #D9A183",
"Q. c #CAA897",
"!. c #EAAD8D",
"~. c #E6A48B",
"^. c #EEB08F",
"/. c #F0A091",
"(. c #F0B291",
"). c #F0BA9D",
"_. c #E3B9A4",
"`. c #8683C5",
"'. c #8784C5",
/* pixels */
"                                  ",
"                                  ",
"        d ^ n * o.3 . 6 J         ",
"      y T | &.n V.8 1 X...1 f     ",
"@ ; i = d ! 6 V.[ ) ) E E ( ~ ,   ",
"* F.l.j.Z.g.1 } ' _ _ ) R R ) ~ % ",
"  b P h.m.z.g.C.C.{ _ _ R 2 _ ( , ",
"  . - G a.B.u.u.u.W ` -.^ , R W   ",
"  * . 4 O.*.6 X . 5 2.r.F X . @   ",
". O X  .r.w.@.4 3 3.4.w.O.% X 3 . ",
"$ @.w #.!.4.r r.W.!.M *.~.@.6 0.& ",
"O 2.w.r.^.3.6 !.(.(.r &.(.W.w.r.4 ",
"  N 5.~./.q.&.^.(.(.*.0./.~.e. .  ",
"    Z 0.R.E.(.(.(.(.(.E.R.0.C     ",
"    y ..T.R.!.W.W.Y.!.E.T.$.y     ",
"      a ..E.e.O X X 5./.X.u       ",
"          N r.e.r.r.r. .          ",
"        G u.m o.r.O.n H u.        ",
"      e +.N.h H L.H h s.+.t       ",
"    g >.9.6.`.`.'.'.'.7.9.1.a     ",
"  i =.L.c.J.<.<.<.<.<.K.b.z.f.=   ",
"p I._.%.p.c.`.`.`.`.`.b.d.H Z.3.i ",
"% Q.). .t 6.8.6.6.6.6.6.F B H.V   ",
"  %.&.J Y 8.8.8.7.7.7.,.0 5 I     ",
"    + i.v.n.n.v.j.v.k.H q 7 :     ",
"      i.z.m.n.z.+ f.G N.P.G.v +   ",
"        i k m.z.X = N.S.:.L c .   ",
"      s 1 ! M.g . . G.A.A A c .   ",
"    z D $./ 2 X : O U :.A S 9 9   ",
"    z %.A.9 O -   - v c c 9 9     ",
"      q $ @ $         O o         "
};
