/* XPM */
static char *result[] = {
/* columns rows colors chars-per-pixel */
"20 33 174 2 ",
"   c #2F1F1F",
".  c #301F1F",
"X  c #3B2A1F",
"o  c #3B1E23",
"O  c #341F21",
"+  c #2F2020",
"@  c #302020",
"#  c #3A2526",
"$  c #3A2826",
"%  c #34252C",
"&  c #352D2B",
"*  c #37322E",
"=  c #3F302B",
"-  c #383430",
";  c #372939",
":  c #471D28",
">  c #56192D",
",  c #6C1634",
"<  c #442E2B",
"1  c #45302D",
"2  c #4B342F",
"3  c #412E33",
"4  c #493734",
"5  c #523A34",
"6  c #5E3B3B",
"7  c #602333",
"8  c #75233B",
"9  c #3D413A",
"0  c #5E4E1F",
"q  c #5B4239",
"w  c #60443C",
"e  c #66483F",
"r  c #3B2E45",
"t  c #3F3251",
"y  c #443759",
"u  c #7D2042",
"i  c #7E3142",
"p  c #453A63",
"a  c #603A76",
"s  c #414C43",
"d  c #46544A",
"f  c #6B4A43",
"g  c #774B48",
"h  c #6D5144",
"j  c #78564A",
"k  c #7C5B4C",
"l  c #745647",
"z  c #645959",
"x  c #775B57",
"c  c #4C6359",
"v  c #50466E",
"b  c #507060",
"n  c #6A606E",
"m  c #716979",
"M  c #69746D",
"N  c #85113C",
"B  c #837320",
"V  c #901040",
"C  c #951247",
"Z  c #A70D47",
"A  c #B40A4C",
"S  c #BA094E",
"D  c #9C3F51",
"F  c #95344C",
"G  c #AB2278",
"H  c #C00850",
"J  c #C80753",
"K  c #D80458",
"L  c #DA115C",
"P  c #E4025C",
"I  c #DC1C60",
"U  c #DC1176",
"Y  c #F00160",
"T  c #EA1265",
"R  c #F0296B",
"E  c #82594E",
"W  c #885B53",
"Q  c #856151",
"!  c #8D6858",
"~  c #916959",
"^  c #9C725F",
"/  c #877C5E",
"(  c #8D4B64",
")  c #916C6A",
"_  c #957265",
"`  c #A87A65",
"'  c #B37C6C",
"]  c #D24166",
"[  c #DF7379",
"{  c #C37575",
"}  c #668073",
"|  c #95841F",
" . c #A19129",
".. c #D2C43A",
"X. c #B3A540",
"o. c #AEA255",
"O. c #AC8168",
"+. c #B3846C",
"@. c #B98A6F",
"#. c #B6896D",
"$. c #BE9072",
"%. c #B19473",
"&. c #AEA169",
"*. c #B6AC6D",
"=. c #B7AD64",
"-. c #BDB261",
";. c #AFA67B",
":. c #C38774",
">. c #C38D75",
",. c #C49076",
"<. c #CB957A",
"1. c #C89878",
"2. c #D19C7D",
"3. c #4E4581",
"4. c #504888",
"5. c #524984",
"6. c #534C94",
"7. c #664F90",
"8. c #726E8B",
"9. c #5953A3",
"0. c #5B56AC",
"q. c #5F5BBB",
"w. c #605CBD",
"e. c #7B4AAA",
"r. c #6960AC",
"t. c #6170AC",
"y. c #6061BA",
"u. c #765ECF",
"i. c #6461C9",
"p. c #776ECE",
"a. c #6866D7",
"s. c #6967D9",
"d. c #726CD1",
"f. c #7A76D8",
"g. c #6D6CE6",
"h. c #6F6FEE",
"j. c #6E70E7",
"k. c #7070F0",
"l. c #B038A8",
"z. c #877F88",
"x. c #A77F85",
"c. c #8979BE",
"v. c #8156C7",
"b. c #8377D4",
"n. c #8C9C94",
"m. c #999795",
"M. c #848F89",
"N. c #A29E9E",
"B. c #A29996",
"V. c #BB8E93",
"C. c #A8A088",
"Z. c #9A94A2",
"A. c #918DA5",
"S. c #AF8CB0",
"D. c #AAA5A5",
"F. c #D69D81",
"G. c #D88282",
"H. c #E68B8A",
"J. c #ED9E8E",
"K. c #F09090",
"L. c #F09E90",
"P. c #DCA184",
"I. c #D7A181",
"U. c #C0A193",
"Y. c #D8A39F",
"T. c #E5A789",
"R. c #F0A58D",
"E. c #F0A090",
"W. c #F0A890",
"Q. c #F0B090",
"!. c #D2B6B5",
"~. c #F0BEA5",
"^. c #8582C9",
"/. c None",
/* pixels */
"/./././././.@ @ @ @ @ @ @ @ . /././././.",
"/./././././.N D E @ ! 5 @ 2 ^ 1 @ /././.",
"/././././.+ A ] ` g [ F , 8 +.8 , > /./.",
"/.@ @ @ @ @ A V e W.T Y Y H # K Y V @ /.",
"/.@ z A.w.w.v.a , R Y P Y P S , J K Z @ ",
"/./.z 8.t.g.k.w.7.l.l.U Y Y P : A Y H . ",
"/././.* c y.p.d.i.i.i.G L T I : C J Z . ",
"/././.@ % & _ x % % % o E <.@.< o : o /.",
"/./.@ @ # Q #.O.l     l O.1.$.= @ +     ",
"/.@ 5 q $ ,.I.+.! l j #.+.` 2.Q 1 5 e O ",
"/.  k O.5 F.Q.~ w Q.Q.Q.~ q Q.Q.k ^ $.. ",
"/.  k 1.<.Q.Q.~ w Q.Q.Q.~ w Q.W.F.P.>.@ ",
"/./.q ! P.R.E.:.+.Q.Q.Q.,.' L.L.T.' j /.",
"/././.5 ^ H.K.E.Q.Q.Q.Q.Q.W.K.K.' f   /.",
"/./././.$ G.K.E.Q.Q.Q.Q.Q.W.K.K.f /././.",
"/././././.6 { E.<.q w w ` W.H.g /./././.",
"/./././././.E ' <.~ ~ ~ +.,.W 1 /./././.",
"/./././././.r x #.<.T.2.:._ r /././././.",
"/././././.@ 9.4.X < #.e $ y s.; /./././.",
"/./././.X | o.M.9.9.b.r.9.8.*. .0 /././.",
"/././.5 E &.*.C.m.Z.Z.Z.Z.m.*.*.n y /./.",
"/./.1 h Y.p.j.B...........-.k.s.f.7.4 /.",
"/.+ W V.b.y y.f.^.^.b.^.^.f.g.y B.!.N.. ",
"/./.f ) S.3 / ;.;.;.;.;.;.;.&.$ ' ~.U.. ",
"/././.q ` < B X.=.-.-.-.-.-.=.v ) +.^ @ ",
"/./././.@ @ + 4.k.k.k.k.k.k.k.k.p O O /.",
"/././.- c m.N.m v h.p i.k.k.k.k.p   /./.",
"/././.- b M.n.M.m 3.% 0.k.a.4.4.t /././.",
"/././.- b c b n.N.  + 6.u.e.> O /./././.",
"/././.- b b b n.N.  + % C P K : /./././.",
"/././.& 9 c b } M   /.  > u ( B.z /././.",
"/./././.& s d d s O /./.+ * d m.z /././.",
"/././././.@ @ @ @ /./././.@ @ @ /./././."
};
