/* XPM */
static char *result[] = {
/* columns rows colors chars-per-pixel */
"24 33 171 2 ",
"   c #2F1F1F",
".  c #301E1E",
"X  c #321F20",
"o  c #3C1E24",
"O  c #2F2020",
"+  c #302020",
"@  c #3B2725",
"#  c #3C2927",
"$  c #34252D",
"%  c #372B2A",
"&  c #362733",
"*  c #382A3A",
"=  c #3E3030",
"-  c #492E1C",
";  c #47321E",
":  c #471C27",
">  c #4F1A2A",
",  c #541A2C",
"<  c #681632",
"1  c #781839",
"2  c #412D29",
"3  c #52222E",
"4  c #463620",
"5  c #4B3928",
"6  c #4E3532",
"7  c #463939",
"8  c #463838",
"9  c #523B33",
"0  c #543433",
"q  c #5B2435",
"w  c #673F3F",
"e  c #632635",
"r  c #5B4B1F",
"t  c #765017",
"y  c #5C423A",
"u  c #66493F",
"i  c #756520",
"p  c #3B2E45",
"a  c #3E3248",
"s  c #473A58",
"d  c #443961",
"f  c #483E6E",
"g  c #564A4A",
"h  c #435046",
"j  c #5F5353",
"k  c #584C54",
"l  c #6C4843",
"z  c #784A4A",
"x  c #735347",
"c  c #7C554B",
"v  c #7C5A4C",
"b  c #675C5C",
"n  c #6A5557",
"m  c #684E5B",
"M  c #554460",
"N  c #4C427A",
"B  c #534C6E",
"V  c #756C6C",
"C  c #78696C",
"Z  c #B97009",
"A  c #A06810",
"S  c #887820",
"D  c #826B33",
"F  c #817336",
"G  c #9C0E44",
"H  c #9E1453",
"J  c #A80C48",
"K  c #A20D46",
"L  c #B11C51",
"P  c #AE104B",
"I  c #CA0653",
"U  c #D80458",
"Y  c #D50457",
"T  c #E20A5E",
"R  c #DB1277",
"E  c #EA0963",
"W  c #F00060",
"Q  c #EC1267",
"!  c #F01266",
"~  c #F02777",
"^  c #815F4F",
"/  c #914652",
"(  c #82614F",
")  c #846353",
"_  c #896255",
"`  c #8E6A57",
"'  c #946C5A",
"]  c #956A5A",
"[  c #9A735E",
"{  c #97725B",
"}  c #9E6467",
"|  c #847F68",
" . c #9E7460",
".. c #947261",
"X. c #907C76",
"o. c #A66067",
"O. c #AE7F69",
"+. c #BD6E71",
"@. c #D9417D",
"#. c #CD676E",
"$. c #DB6B74",
"%. c #DB717D",
"&. c #EA757D",
"*. c #DCA711",
"=. c #E9A90C",
"-. c #C6B620",
";. c #D5C520",
":. c #D9CA2D",
">. c #E0D020",
",. c #B3826C",
"<. c #BF8B73",
"1. c #C4B854",
"2. c #CC997B",
"3. c #C89378",
"4. c #D29C7E",
"5. c #EDB67B",
"6. c #4F4684",
"7. c #504888",
"8. c #544D95",
"9. c #5D4D9C",
"0. c #665685",
"q. c #665A9B",
"w. c #74639E",
"e. c #6B6388",
"r. c #5C57AE",
"t. c #5751A0",
"y. c #625FC4",
"u. c #6461C9",
"i. c #6866D6",
"p. c #6765D3",
"a. c #7E7CD6",
"s. c #7070F0",
"d. c #746FEA",
"f. c #B13795",
"g. c #B632A1",
"h. c #C02A96",
"j. c #847E8D",
"k. c #AA7BB3",
"l. c #CC6F94",
"z. c #E77F87",
"x. c #F07E8A",
"c. c #E56797",
"v. c #8F8888",
"b. c #999292",
"n. c #89849C",
"m. c #A3949E",
"M. c #AA8891",
"N. c #A8A088",
"B. c #8A86BF",
"V. c #B894BA",
"C. c #ABA5A5",
"Z. c #B9B2B4",
"A. c #D59D80",
"S. c #D99982",
"D. c #E48880",
"F. c #F09090",
"G. c #F09A90",
"H. c #DBA283",
"J. c #D7A081",
"K. c #DDA898",
"L. c #ECAE8E",
"P. c #E5A88A",
"I. c #F0A690",
"U. c #F0A890",
"Y. c #F0B090",
"T. c #C79CAD",
"R. c #D198AF",
"E. c #CBAFBA",
"W. c #F0CEBD",
"Q. c #CDBCC2",
"!. c None",
/* pixels */
"!.!.!.!.!.!.!.!.!.!.!.!.!.!.!.!.!.!.!.!.!.!.!.!.",
"!.!.!.!.!.!.!.!.!.  + + + +   !.!.!.!.!.!.!.!.!.",
"!.!.!.!.!.!.!.!.w z l @ l z 6   !.!.!.!.!.!.!.!.",
"!.!.!.!.!.!.!.7 o.z.+.3 %.x./ : X : !.!.!.!.!.!.",
"!.!.!.!.+ + + C.c.L e U ! ! T G , I : !.!.!.!.!.",
"!.!.!.k j.9.H @.~ J , W W W T Y K 1 G < !.!.!.!.",
"!.!.!.n j.d.g.g.R J , W W W W W I o U < !.!.!.!.",
"!.!.!.!.s p.p.p.f.K , U U U U U P : I < !.!.!.!.",
"!.!.!.!.!.$ $ $ _ _ X o @ o o o o . o !.!.!.!.!.",
"!.!.!.!.!.+ + _ 4.4.O.[ { 9   . O + O O !.!.!.!.",
"!.!.!.!.!.+ v { 3.Y.L.H.2.y 9 y O O + + !.!.!.!.",
"!.!.!.!.!.y H.l [ Y.Y.L.4.v ' ` + + + + !.!.!.!.",
"!.!.!.!.9 P.L.l [ U.U.Y.Y.P.2.` + O + + !.!.!.!.",
"!.!.!.!.!.x H.3.A.U.G.G.G.U.O.6 + + + . !.!.!.!.",
"!.!.!.!.!.# 3.L.Y.I.F.F.F.I.,.v u O   !.!.!.!.!.",
"!.!.!.!.!.@ [ J.A.S.F.F.F.I.L.4.{ O !.!.!.!.!.!.",
"!.!.!.!.!.!.+ { l z F.F.F.U.H.` + !.!.!.!.!.!.!.",
"!.!.!.!.!.!.!.9 v 3.U.U.U.H.` 8   + + !.!.!.!.!.",
"!.!.!.!.!.!.!.!.l )  .A.{ ^ F S i O + !.!.!.!.!.",
"!.!.!.!.!.!.!.!.O & M M.s s i -.-.r !.!.!.!.!.!.",
"!.!.!.!.!.!.!.!.O N d.s.s.s.N i >.;.4 !.!.!.!.!.",
"!.!.!.!.!.!.!.  O & k 1.1.B.N t =.;.4 !.!.!.!.!.",
"!.!.!.!.!.!.!.$ b X.{ N.N.e.7.b A *.; !.!.!.!.!.",
"!.!.!.!.!.!.!.a b.W.K.B.s.d N N - Z - !.!.!.!.!.",
"!.!.!.!.!.!.+ r.V.Y.5.:.i.d O O + + !.!.!.!.!.!.",
"!.!.!.!.O !.+ * q.w.y r a t.u.u.r.+ !.!.!.!.!.!.",
"!.!.!.b v.# ' 0.7.7.8.8.8.p.s.y.B ) 2 + !.!.!.!.",
"!.!.+ V Q.1 $.k.B M r.r.r.r.r.0.^ #.b 2 !.!.!.!.",
"!.!.+ b T.E W $.,.h O O + + + x &.E E.j !.!.!.!.",
"!.!.!.!.n R.Q &.) % !.!.!.!.O # 0 q Z.j !.!.!.!.",
"!.!.!.!.7 V l.} u !.!.!.!.!.!.+ 7 b.V g !.!.!.!.",
"!.!.!.!.!.% v.k !.!.!.!.!.!.!.!.7 C.7 !.!.!.!.!.",
"!.!.!.!.!.!.+ !.!.!.!.!.!.!.!.!.+ + !.!.!.!.!.!."
};
