/* XPM */
static char *result[] = {
/* columns rows colors chars-per-pixel */
"20 33 188 2 ",
"   c #2C1A1A",
".  c #321C1D",
"X  c #39191F",
"o  c #35211D",
"O  c #3B261A",
"+  c #2B1F2E",
"@  c #381A24",
"#  c #332423",
"$  c #3C2623",
"%  c #392928",
"&  c #38322D",
"*  c #2B2236",
"=  c #312333",
"-  c #392B37",
";  c #383731",
":  c #3B3F38",
">  c #402E1E",
",  c #593513",
"<  c #693F11",
"1  c #4B1525",
"2  c #5D132B",
"3  c #521D2A",
"4  c #58172B",
"5  c #4A1D36",
"6  c #581733",
"7  c #66112E",
"8  c #730F32",
"9  c #7C0E36",
"0  c #6E1031",
"q  c #701236",
"w  c #412B26",
"e  c #452929",
"r  c #4B2E2C",
"t  c #4D342E",
"y  c #4A3929",
"u  c #473A38",
"i  c #553A33",
"p  c #5A3D35",
"a  c #503630",
"s  c #592837",
"d  c #77283B",
"f  c #3C433B",
"g  c #53411A",
"h  c #74460F",
"j  c #68481B",
"k  c #764C13",
"l  c #62511A",
"z  c #785E16",
"x  c #76651A",
"c  c #46473C",
"v  c #52453B",
"b  c #57482C",
"n  c #654122",
"m  c #63433B",
"M  c #685939",
"N  c #2A2949",
"B  c #352C46",
"V  c #393C42",
"C  c #39374B",
"Z  c #3E3259",
"A  c #36315C",
"S  c #5C1D4D",
"D  c #73184F",
"F  c #611945",
"G  c #41345B",
"H  c #473E56",
"J  c #513E5B",
"K  c #49324C",
"L  c #433764",
"P  c #3C5269",
"I  c #574A4A",
"U  c #445146",
"Y  c #44554B",
"T  c #49574F",
"R  c #585245",
"E  c #4B4359",
"W  c #554C5F",
"Q  c #5D5151",
"!  c #545550",
"~  c #774645",
"^  c #695257",
"/  c #676658",
"(  c #6F745E",
")  c #564865",
"_  c #4B417C",
"`  c #5B517A",
"'  c #655262",
"]  c #776D6E",
"[  c #6B7162",
"{  c #797574",
"}  c #8C0D3B",
"|  c #920C3E",
" . c #84213E",
".. c #844F0D",
"X. c #86761A",
"o. c #886F16",
"O. c #B8780A",
"+. c #9E0A42",
"@. c #8C1048",
"#. c #A80946",
"$. c #BB064D",
"%. c #B3084B",
"&. c #B90950",
"*. c #AE155E",
"=. c #B1164D",
"-. c #C1084F",
";. c #C90552",
":. c #D40355",
">. c #DC0258",
",. c #D90257",
"<. c #EA005D",
"1. c #E00159",
"2. c #E1155F",
"3. c #EA0262",
"4. c #F10060",
"5. c #F01464",
"6. c #D63C66",
"7. c #E5346A",
"8. c #814D4D",
"9. c #80544D",
"0. c #935B5B",
"q. c #9F5F5F",
"w. c #8F5656",
"e. c #A45B5B",
"r. c #9F6B5D",
"t. c #9D725E",
"y. c #8A6553",
"u. c #936C60",
"i. c #867776",
"p. c #A9676B",
"a. c #A87A68",
"s. c #B9746A",
"d. c #B36C6C",
"f. c #E5416D",
"g. c #7B836A",
"h. c #97861A",
"j. c #AA8C14",
"k. c #A8931A",
"l. c #B59716",
"z. c #B8A71A",
"x. c #AB992C",
"c. c #A89A30",
"v. c #B3A535",
"b. c #CC8709",
"n. c #D38706",
"m. c #D59209",
"M. c #DFB10F",
"N. c #D6B714",
"B. c #C2B21A",
"V. c #E2B50F",
"C. c #DCC817",
"Z. c #8C987D",
"A. c #B3836C",
"S. c #B8896F",
"D. c #BF8F74",
"F. c #A9987B",
"G. c #B1A477",
"H. c #E1AE79",
"J. c #4B468C",
"K. c #5E508B",
"L. c #554D94",
"P. c #665E97",
"I. c #7D7986",
"U. c #5B56AA",
"Y. c #625EA1",
"T. c #625EB5",
"R. c #726DA4",
"E. c #736FB4",
"W. c #6F70D0",
"Q. c #962F86",
"!. c #807C88",
"~. c #8E59AB",
"^. c #8F9A80",
"/. c #959592",
"(. c #B08983",
"). c #B7988A",
"_. c #91A181",
"`. c #9DA891",
"'. c #A4A29F",
"]. c #B3A29B",
"[. c #8A85A9",
"{. c #989FA1",
"}. c #AEACAD",
"|. c #DF9386",
" X c #E39389",
".X c #DBA889",
"XX c #F0CCB9",
"oX c None",
/* pixels */
"oXoXoXoXoXoXoXoXoXoXoXoXoXoXoXoXoXoXoXoX",
"oXoXoXoXoXoXoXoXoXoXoXoXoXoXoXoXoXoXoXoX",
"oXoXoXoXoX) p @   i p w m d S oXoXoXoXoX",
"oXoXoX5 6 y.t.3 3 e.s.m a.6.%.6 + - E oX",
"oXoXF &.-. .d -.;.2.f.s.~ =.>.$.4 ] !.B ",
"oXD $.>.| | -.<.4.4.5.7.=.} +.>.-.~.R.% ",
"X +.<.:.2 #.4.4.4.4.4.4.<.9 7 1.<.Q.J.oX",
"= @.:.$.0 #.4.4.4.4.4.4.<.} 8 -.;.q N oX",
"oXZ 1 2 %.,.<.<.<.<.<.<.3.,.#.4 1 X N oX",
"oX*   X 7 8 8 8 8 8 8 8 8 8 2       * oX",
"oXp p @                           p m oX",
"oXt.A.$                         . t.A.oX",
"oXt.A.$                         o y.t.oX",
"oX) 9.0.e                     $ w.~ E oX",
"oXoXE 0.8.r                 e ~ 0.) oXoX",
"oXoXoXK p.8.r e         w r ~ p.K oXoXoX",
"oXoXoXoXB q. XA.y     w a.|.d.- oXoXoXoX",
"oXoXoXoXoXoXp a .       t p J oXoXoXoXoX",
"oXoXoXoXoXoXL % x X.X.x > G J.oXoXoXoXoX",
"oXoXoXoXI P.U.y h.z.z.k.y L.T.I oXoXoXoX",
"oXoXoXu v./.U.& O O o O O K.[.v.n oXoXoX",
"oXoXZ T.~.` M k.O.< , O.l.M ) [.).^ oXoX",
"oX' i.[._.R g C.V.l.j.M.C.x v F..X).I.oX",
". a..XG.x.l l N.C.z.z.C.N.z g x.H.XX].& ",
"= t..XD.i # n b.N.o.z N.m.h o i S..Xa.- ",
"oXW i a # _ K.j b.n.n.n.k c oXY v p H oX",
"oXoXoXoX* K G $ h ....k > % : V A oXoXoX",
"oXoXoXoXN u Q I %   @ 7 K G B * oXoXoXoX",
"oXoXoXoXB i.}.'.I # 2 *.T.W.Y.G oXoXoXoX",
"oXoXP : [ ^.`.`./.Q X s i./.{.}.W oXoXoX",
"oXoXU ; g._._.^.] ! f c I R / ] T P oXoX",
"oXoXY f ( ( ( [ U Y oXoXf ; ; : oXoXoXoX",
"oXoXoXY & # # % Y oXoXoXoXoXoXoXoXoXoXoX"
};
