/* XPM */
static char *result[] = {
/* columns rows colors chars-per-pixel */
"25 37 184 2 ",
"   c #2F1F1F",
".  c #301F1F",
"X  c #35251F",
"o  c #3B1E23",
"O  c #361E22",
"+  c #2F2020",
"@  c #312121",
"#  c #392424",
"$  c #3D2A25",
"%  c #3E2A28",
"&  c #34252E",
"*  c #3A2934",
"=  c #3F3134",
"-  c #4B3A1F",
";  c #653F16",
":  c #421D26",
">  c #481D28",
",  c #5D182F",
"<  c #56182D",
"1  c #60172F",
"2  c #7A1339",
"3  c #721536",
"4  c #6E1533",
"5  c #422D2A",
"6  c #45312A",
"7  c #503F22",
"8  c #4F3932",
"9  c #4D3633",
"0  c #553C35",
"q  c #593234",
"w  c #482534",
"e  c #732B3C",
"r  c #57481F",
"t  c #785C1B",
"y  c #5C4239",
"u  c #51433E",
"i  c #584527",
"p  c #6E5E20",
"a  c #61453C",
"s  c #664A3F",
"d  c #725939",
"f  c #736320",
"g  c #553940",
"h  c #443756",
"j  c #4D3944",
"k  c #7A3050",
"l  c #463B64",
"z  c #493F71",
"x  c #564648",
"c  c #5B5348",
"v  c #554955",
"b  c #5F5156",
"n  c #6B4D42",
"m  c #704541",
"M  c #71444B",
"N  c #6F5144",
"B  c #765449",
"V  c #7B594C",
"C  c #755448",
"Z  c #655A5C",
"A  c #685B5B",
"S  c #744855",
"D  c #766843",
"F  c #4D427A",
"G  c #584B78",
"H  c #5D5378",
"J  c #675968",
"K  c #675E78",
"L  c #6C4775",
"P  c #77746D",
"I  c #84113C",
"U  c #8A103E",
"Y  c #83521B",
"T  c #806A1D",
"R  c #A37414",
"E  c #806B2D",
"W  c #8D7D20",
"Q  c #8F623D",
"!  c #A57321",
"~  c #940F41",
"^  c #9C0E44",
"/  c #BD1051",
"(  c #B60E4E",
")  c #8B3348",
"_  c #B03957",
"`  c #B12079",
"'  c #DC0359",
"]  c #CB0A5D",
"[  c #EB005E",
"{  c #D4177E",
"}  c #F00060",
"|  c #E00D71",
" . c #DE3870",
".. c #D1276B",
"X. c #E32865",
"o. c #F0316D",
"O. c #E63F7B",
"+. c #805E4E",
"@. c #964751",
"#. c #8B6555",
"$. c #896356",
"%. c #936C5A",
"&. c #906757",
"*. c #9C745F",
"=. c #A06A5E",
"-. c #924E65",
";. c #AA4870",
":. c #896166",
">. c #9D7464",
",. c #906C67",
"<. c #AF6F69",
"1. c #A37462",
"2. c #A67964",
"3. c #A87F64",
"4. c #AB7769",
"5. c #B4756D",
"6. c #B66470",
"7. c #CA5376",
"8. c #C6716F",
"9. c #F06B7D",
"0. c #E17B7C",
"q. c #A88919",
"w. c #BE8F16",
"e. c #998828",
"r. c #A99920",
"t. c #C9A91B",
"y. c #E0D020",
"u. c #B59555",
"i. c #B8A84E",
"p. c #AC8167",
"a. c #B1826B",
"s. c #BE8B72",
"d. c #C28E75",
"f. c #CA9679",
"g. c #D29A7E",
"h. c #584E90",
"j. c #7B7392",
"k. c #776F86",
"l. c #5E58A7",
"z. c #5F5BBA",
"x. c #615BAA",
"c. c #615CB2",
"v. c #6763B0",
"b. c #665FC0",
"n. c #706BCE",
"m. c #7B65E3",
"M. c #7574E6",
"N. c #B433A2",
"B. c #866B88",
"V. c #84789F",
"C. c #BE6D86",
"Z. c #A045B8",
"A. c #DE4684",
"S. c #ED4A89",
"D. c #C77896",
"F. c #F06F83",
"G. c #8E6ECC",
"H. c #8B7EDC",
"J. c #8B8584",
"K. c #988D91",
"L. c #A29B96",
"P. c #9691A8",
"I. c #908BB3",
"U. c #8E8BB8",
"Y. c #BF94A3",
"T. c #D79C81",
"R. c #D89982",
"E. c #F09090",
"W. c #F09E90",
"Q. c #DAA282",
"!. c #CEA491",
"~. c #EDAD8E",
"^. c #E6A48A",
"/. c #F0A390",
"(. c #F0AC90",
"). c #EBB297",
"_. c #CF93AC",
"`. c #F088A9",
"'. c #EBC4B1",
"]. c #8E8BDB",
"[. c #8B88EA",
"{. c #C9B6DB",
"}. c #CEC8C7",
"|. c None",
/* pixels */
"|.|.|.|.|.|.|.|.|.|.|.|.|.|.|.|.|.|.|.|.|.|.|.|.|.",
"|.|.|.|.|.|.|.|.|.|.|.|.|.|.|.|.|.|.|.|.|.|.|.|.|.",
"|.|.|.|.|.|.|.|.|.|.|.|.|.|.|.|.|.|.|.|.|.|.|.|.|.",
"|.|.|.|.|.|.|.5 5 5 # 5 5 % @ |.|.|.|.|.|.|.|.|.|.",
"|.|.|.|.|.|.a +.#.V 6 d &.B 5 X O |.|.|.|.|.|.|.|.",
"|.|.|.|.|.x :.5.8.*.e 6.0.8.e : : < |.|.|.|.|.|.|.",
"|.|.5 = w :.D.7._ k ( X.o.X./ 3 2 I 2 |.|.|.|.|.|.",
"|.Z L h.k ;. ...^ 1 ' } } } [ ( ~ ~ U 4 |.|.|.|.|.",
"+ P U.G.N.{ { ] U 1 [ [ } } } } ^ I ~ ~ : |.|.|.|.",
"|.= G b.m.G.Z.N.^ 1 ' [ } } } } ^ I ~ ~ : |.|.|.|.",
"|.|.h z z F L -.) < 2 I I I I I 1 < , 4 |.|.|.|.|.",
"|.|.|.* * g &.4.1.d s s q : : # o O o o |.|.|.|.|.",
"|.|.|.# 5 B 4.g.g.d.p.p.N # $ # @ @ + + . |.|.|.|.",
"|.|.|.5 B $.1.g.(./.Q.g.+.6 C 8 # + + @ + |.|.|.|.",
"|.|.|.B a.%.$.s.~.~.~.Q.*.V p.s $ + @ + + |.|.|.|.",
"|.|.n 2.g.2.%.d.(.(.~.^.T.d.a.s $ @ . +   |.|.|.|.",
"|.|.a #.d.d.d.R./.W.W.W./.T.#.0 # + @ + |.|.|.|.|.",
"|.|.|.0 2.^.~.~./.E.E.E./.g.C y 6 #   |.|.|.|.|.|.",
"|.|.|.0 %.g.~.~./.E.E.E./.(.~.Q.#.0 |.|.|.|.|.|.|.",
"|.|.|.|.a %.2.>.<.E.E.E.W.~.g.&.n |.|.|.|.|.|.|.|.",
"|.|.|.|.|.N +.&.5.W.W.W.^.g.*.a 5 @ |.|.|.|.|.|.|.",
"|.|.|.|.|.|.n &.3.R.^.R.d.3.d i 6 X   |.|.|.|.|.|.",
"|.|.|.|.|.|.|.y m $.d.$.n s e.r.f r   |.|.|.|.|.|.",
"|.|.|.|.|.|.|.$ 7 E u.A l v e.t.q.T r |.|.|.|.|.|.",
"|.|.|.|.|.|.|.u D i.i.j.z.l.b ! w.q.t |.|.|.|.|.|.",
"|.|.|.|.|.|.h H j.L.L.K l.n.x.B ! R t . |.|.|.|.|.",
"|.|.|.|.|.|.v k.P.P.K.D J v.].k.Q Y ; . |.|.|.|.|.",
"|.|.|.|.|.|.f r.y.y.y.y.W c }.'.>.0   . |.|.|.|.|.",
"|.|.|.|.|.|.v k.I.I.I.I.J x !.).>.y O |.|.|.|.|.|.",
"|.|.|.|.|.|.l c.M.M.M.M.c.G ,.>.V 0 |.|.|.|.|.|.|.",
"|.|.|.|.|.|.l l.n.[.H.H.n.h.j 9 9 |.|.|.|.|.|.|.|.",
"|.|.|.|.|.|.|.H V.{._._.B.h & @ |.|.|.|.|.|.|.|.|.",
"|.|.|.|.|.|.|.g -.`.F.F.@.# + |.|.|.|.|.|.|.|.|.|.",
"|.|.|.|.|.|.|.S ;.S. . .) O |.|.|.|.|.|.|.|.|.|.|.",
"|.|.|.|.|.|.A K.Y._.D.6.M # |.|.|.|.|.|.|.|.|.|.|.",
"|.|.|.|.|.|.A J.L.L.J.P c |.|.|.|.|.|.|.|.|.|.|.|.",
"|.|.|.|.|.|.|.+ + O + @ + |.|.|.|.|.|.|.|.|.|.|.|."
};
