/* XPM */
static char *_fbed4115ed94621f960899f29b745a3xCAXcag9axP3Jirp[] = {
/* columns rows colors chars-per-pixel */
"35 57 5 1 ",
"  c #B8F868",
". c black",
"X c #789850",
"o c #88C858",
"O c white",
/* pixels */
"                                   ",
"                                   ",
"                                   ",
"                                   ",
"                                   ",
"                                   ",
"                ..                 ",
"                ..                 ",
"               .XX.                ",
"               .XX.                ",
"              .oXXo.               ",
"              .oXXo.               ",
"             .ooXXoo.              ",
"             .ooXXoo.              ",
"            .oXXXXXXo.             ",
"            .oXXXXXXo.             ",
"           .ooXXXXXXoo.            ",
"           .ooXXXXXXoo.            ",
"          .oXXooooooXXo.           ",
"          .oXXooooooXXo.           ",
"         .ooXXooooooXXoo.          ",
"         .ooXXooooooXXoo.          ",
"        .ooooXXXXooooXXXX.         ",
"        .ooooXXXXooooXXXX.         ",
"       .XooooXXXXooooXXXXX.        ",
"       .XooooXXXXooooXXXXX.        ",
"      .oXXXXXooooXXXXooooXo.       ",
"      .oXXXXXooooXXXXooooXo.       ",
"     .ooXXXXXooooXXXXooooXoo.      ",
"     .ooXXXXXooooXXXXooooXoo.      ",
"    .oXXXooooXXXXooooXXXXXXXo.     ",
"    .oXXXooooXXXXooooXXXXXXXo.     ",
"   .ooXXXooooXXXXooooXXXXXXXoo.    ",
"   .ooXXXooooXXXXooooXXXXXXXoo.    ",
"  .oXXoooXXXXooooXXXXoooooooXXo.   ",
"  .oXXoooXXXXooooXXXXoooooooXXo.   ",
" .ooXXoooXXXXooooXXXXoooooooXXoo.  ",
" .ooXXoooXXXXooooXXXXoooooooXXoo.  ",
" .XXooXXXooooXXXXXXXXooooXXXooXX.  ",
" .XXooXXXooooXXXXXXXXooooXXXooXX.  ",
" .XXooXXXooooXXXXXXXXooooXXXooXX.  ",
"  .XooXXXooooXXXXXXXXooooXXXooX.   ",
"   .ooXXXooooXXXXXXXXooooXXXoo.    ",
"    ..XXXooooXXXXXXXXooooXXX..     ",
"      ..XooooXXXXXXXXooooX..       ",
"        .....XXXXXXXX.....         ",
"          ooo........ooo           ",
"        oooo..XXXXXX..oooo         ",
"      ooooX.o.XXooXX.o.Xoooo       ",
"     oooXXX.X.Xo  oX.X.XXXooo      ",
"     ooXXXX.XXo....oXX.XXXXoo      ",
"     oooXXXX.Xoo  ooX.XXXXooo      ",
"      ooooXXX........XXXoooo       ",
"        ooooXXXXXXXXXXoooo         ",
"                                   ",
"                                   ",
"                                   "
};
